<svg width="30" height="30" viewBox="0 0 30 30" fill="none" xmlns="http://www.w3.org/2000/svg">
<path d="M0.660045 30C0.491239 30 0.322139 29.9339 0.193372 29.8018C-0.0644572 29.5375 -0.0644572 29.1091 0.193372 28.8448L6.62311 22.2516C6.88064 21.9872 7.29877 21.9872 7.55631 22.2516C7.81414 22.5158 7.81414 22.9443 7.55631 23.2085L1.12657 29.8018C0.99795 29.9338 0.828997 30 0.660045 30Z" fill="white"/>
<path d="M22.2517 9.14856C21.9513 9.14856 21.6511 9.03111 21.422 8.7962C20.9638 8.32623 20.9638 7.56466 21.422 7.09469L26.2442 2.14986C26.7025 1.68019 27.4452 1.68019 27.9035 2.14986C28.3617 2.61983 28.3617 3.3814 27.9035 3.85137L23.0813 8.7962C22.8521 9.03111 22.552 9.14856 22.2517 9.14856Z" fill="white"/>
<path d="M6.12465 21.0778L9.44504 24.4827C9.85979 24.908 10.5322 24.908 10.947 24.4827L24.6628 10.418L19.8406 5.47321L6.12479 19.5378C5.70989 19.963 5.70989 20.6525 6.12465 21.0778Z" fill="white"/>
<path d="M19.8405 5.47308L14.2631 11.1923V21.0821L24.6628 10.4179L19.8405 5.47308Z" fill="white"/>
<path d="M25.4665 11.9188C25.2977 11.9188 25.1286 11.8528 24.9998 11.7206L18.5701 5.12745C18.3123 4.86322 18.3123 4.43475 18.5701 4.17052C18.8276 3.90613 19.2457 3.90613 19.5033 4.17052L25.933 10.7636C26.1908 11.0279 26.1908 11.4563 25.933 11.7206C25.8042 11.8528 25.6353 11.9188 25.4665 11.9188Z" fill="white"/>
<path d="M28.9736 5.60162C28.7109 5.60162 28.4481 5.49875 28.2478 5.29332L24.8379 1.79705C24.4369 1.38588 24.4369 0.719354 24.8378 0.308337C25.2387 -0.102829 25.8889 -0.102679 26.2896 0.308187L29.6993 3.80446C30.1002 4.21563 30.1002 4.88215 29.6994 5.29317C29.4991 5.4989 29.2363 5.60162 28.9736 5.60162Z" fill="white"/>
<path d="M18.2574 11.1197C18.4262 11.1197 18.5953 11.0537 18.7241 10.9215C18.9819 10.6573 18.9819 10.2288 18.7241 9.96456L17.0923 8.29132L16.1591 9.24825L17.7909 10.9215C17.9196 11.0535 18.0886 11.1197 18.2574 11.1197Z" fill="white"/>
<path d="M16.65 12.768C16.8188 12.768 16.9879 12.702 17.1167 12.5698C17.3745 12.3056 17.3745 11.8771 17.1167 11.6129L15.4848 9.93964L14.5516 10.8966L16.1835 12.5698C16.3124 12.7019 16.4812 12.768 16.65 12.768Z" fill="white"/>
<path d="M15.0424 14.4163C15.2112 14.4163 15.3803 14.3503 15.5091 14.2181C15.7669 13.9538 15.7669 13.5254 15.5091 13.2611L13.8774 11.5879L12.9442 12.5448L14.5759 14.2181C14.7047 14.3501 14.8736 14.4163 15.0424 14.4163Z" fill="white"/>
<path d="M13.4351 16.0646C13.6039 16.0646 13.773 15.9986 13.9017 15.8664C14.1596 15.6021 14.1596 15.1737 13.9017 14.9094L12.27 13.2362L11.3368 14.1931L12.9685 15.8664C13.0973 15.9984 13.2663 16.0646 13.4351 16.0646Z" fill="white"/>
<path d="M11.8278 17.7131C11.9966 17.7131 12.1657 17.647 12.2945 17.5148C12.5523 17.2506 12.5523 16.8221 12.2945 16.5579L10.6628 14.8845L9.72955 15.8415L11.3613 17.5148C11.4899 17.6469 11.6589 17.7131 11.8278 17.7131Z" fill="white"/>
<path d="M10.2204 19.3613C10.3892 19.3613 10.5583 19.2953 10.6871 19.1631C10.9449 18.8988 10.9449 18.4704 10.6871 18.2061L9.05533 16.5329L8.12213 17.4898L9.75387 19.1631C9.88249 19.2951 10.0514 19.3613 10.2204 19.3613Z" fill="white"/>
</svg>
